<svg xmlns="http://www.w3.org/2000/svg" viewBox="0 0 1000 620">
<defs>
<linearGradient id="b" x1="0" y1="0" x2="1" y2="1"><stop stop-color="#6f4b08"/><stop offset=".16" stop-color="#e4bc48"/><stop offset=".34" stop-color="#fff0a4"/><stop offset=".5" stop-color="#9a6c12"/><stop offset=".7" stop-color="#f6d66c"/><stop offset="1" stop-color="#6d4603"/></linearGradient>
<linearGradient id="shine" x1="0" y1="0" x2="1" y2="0"><stop stop-color="#fff" stop-opacity="0"/><stop offset=".48" stop-color="#fff" stop-opacity=".5"/><stop offset=".56" stop-color="#fff" stop-opacity="0"/><stop offset="1" stop-color="#fff" stop-opacity="0"/></linearGradient>
<radialGradient id="g" cx=".75" cy=".2" r=".8"><stop stop-color="#fff5ba" stop-opacity=".45"/><stop offset="1" stop-color="#fff5ba" stop-opacity="0"/></radialGradient>
</defs>
<rect x="8" y="8" width="984" height="604" rx="48" fill="url(#b)"/>
<rect x="8" y="8" width="984" height="604" rx="48" fill="url(#g)"/>
<path d="M80 100h840M80 150h840M80 200h840M80 250h840M80 300h840M80 350h840M80 400h840M80 450h840M80 500h840" stroke="#fff" stroke-opacity=".10"/>
<path d="M50 470c180-110 320-120 500-20s300 100 430-20" fill="none" stroke="#fff6c9" stroke-opacity=".25" stroke-width="5"/>
<rect x="8" y="8" width="984" height="604" rx="48" fill="url(#shine)"/>
<rect x="8" y="8" width="984" height="604" rx="48" fill="none" stroke="#ffe9a0" stroke-opacity=".9" stroke-width="4"/>
<text x="70" y="100" font-family="Arial,Inter,sans-serif" font-size="42" font-weight="900" fill="#fff8d5">CardTW</text>
<text x="70" y="140" font-family="Arial,Inter,sans-serif" font-size="16" font-weight="800" letter-spacing="4" fill="#fff2ad">24K GOLD · LEVEL 3</text>
<rect x="70" y="210" width="82" height="60" rx="11" fill="#f5d777"/>
<path d="M84 226h54M84 242h54M84 258h54" stroke="#7c5b16" stroke-width="5"/>
<text x="70" y="365" font-family="Arial,Inter,sans-serif" font-size="32" font-weight="800" letter-spacing="5" fill="#fff8d5">•••• •••• •••• 0000</text>
<text x="70" y="420" font-family="Arial,Inter,sans-serif" font-size="12" font-weight="800" letter-spacing="3" fill="#f7e8bd">CARD HOLDER</text>
<text x="70" y="458" font-family="Arial,Inter,sans-serif" font-size="20" font-weight="800" fill="#fff8d5">CARDTW</text>
<text x="810" y="450" font-family="Arial,Inter,sans-serif" font-size="48" font-weight="900" fill="#fff8d5">VISA</text>
<text x="884" y="96" font-family="Arial,Inter,sans-serif" font-size="30" font-weight="900" fill="#fff3b0">)))</text>
</svg>